<svg 
          width="17.492212295532227" 
          height="14.106475830078125" fill="none" 
          xmlns="http://www.w3.org/2000/svg">
          <path d="M 3.731122425255853 0.28465954629091245 C 3.6568051768036964 0.20088654890012986 3.566599891718101 0.13269690231616632 3.465734876214982 0.08404284897135361 C 3.3648698607118632 0.03538879562654091 3.255351174970112 0.007237983238558059 3.1435264136711547 0.0012220317392356663 C 3.0317016523721976 -0.004793919760086727 2.919794966286577 0.01144462335358281 2.814292242834624 0.048996498102686144 C 2.708789519382671 0.08654837285178948 2.611788999891124 0.1446667101954307 2.5289130618303735 0.21998301856971317 C 2.446037123769623 0.29529932694399563 2.3789339307543886 0.386315635416546 2.331492703352177 0.48775674449238476 C 2.284051475949965 0.5891978535682235 2.257215703761668 0.6990461689226815 2.2525409163349295 0.8109350124973131 C 2.247866128908191 0.9228238560719448 2.2654452303802532 1.0345278497586177 2.3042593405903875 1.139572758219163 C 2.3430734508005218 1.2446176666797084 2.402350598873203 1.3409143196413909 2.478655143407397 1.4228812895749035 L 3.60700391025212 2.667591095365583 C 1.177527917835714 4.285361131686476 0.12322722040320988 6.606938339656469 0.07245152387755252 6.716247119986848 C 0.024675207704521356 6.82456593450604 -9.395390855688105e-17 6.941654156166724 0 7.060041413189301 C 0 7.178428670211877 0.024675207704521356 7.295516353833957 0.07245152387755252 7.403835168353149 C 0.09854458944711088 7.461663040512195 0.7163155638426089 8.832606770057296 2.081617614767813 10.197203548224962 C 3.9067216859549045 12.020191999944426 6.2078481621739225 12.983519318072787 8.746632887574549 12.983519318072787 C 9.980509051986038 12.990357190269437 11.203314533763844 12.750591309263958 12.343244043853485 12.278301358762329 L 13.760026705964352 13.836833479269325 C 13.911758270858133 13.999824775501773 14.121618653883916 14.09644182835055 14.34410959438339 14.105737641113148 C 14.566600534882864 14.115033453875746 14.78378967645375 14.036258748947832 14.94858845078832 13.886492290283513 C 15.113387225122889 13.736725831619195 15.212513644488952 13.528038799035226 15.224476361526262 13.305675312729717 C 15.236439078563572 13.083311826424207 15.160274348408754 12.865194305391235 15.012494525851428 12.698611735985333 L 3.731122425255853 0.28465954629091245 Z M 8.746632887574549 11.290996215727688 C 6.659892876130317 11.290996215727688 4.834788535923916 10.53429697414093 3.3228011506892843 9.04276101710124 C 2.7280585738869902 8.453872317152255 2.2163026702188113 7.786715612232584 1.8016459909082871 7.059688459864939 C 2.173295864642671 6.40313051015478 3.1267506385361923 4.951086721173774 4.7635615038756844 3.936278053514288 L 11.116870020932216 10.925693829321931 C 10.350680698240915 11.17034435421999 9.550929602545919 11.29360218994433 8.746632887574549 11.290996215727688 Z M 17.420813494654737 7.403835168353149 C 17.39542564639191 7.460957823225433 16.78611731330458 8.814270279916158 15.446203152676473 10.165467879194225 C 15.369476004027266 10.25063644784209 15.276245655651818 10.319329379099173 15.172168246943894 10.367377626196205 C 15.06809083823597 10.415425873293238 14.95533579975714 10.441827644078304 14.840746142061393 10.444982162313075 C 14.726156484365646 10.448136680547846 14.612120964413661 10.427978608169322 14.505557766842783 10.385729046908608 C 14.398994569271904 10.343479485647894 14.302126457721863 10.280020181996761 14.22082988158737 10.199201823601 C 14.139533305452877 10.118383465205238 14.075503637034085 10.021890083472035 14.032626124660254 9.91557800162319 C 13.989748612286423 9.809265919774345 13.968916753416385 9.695351016173882 13.97139517761302 9.580744741373861 C 13.973873601809656 9.46613846657384 13.999610015292065 9.35323083008843 14.047043407506882 9.248871769524895 C 14.094476799721699 9.14451270896136 14.16261816347371 9.050878237385897 14.247332587903955 8.973649958390434 C 14.810179125640941 8.40138671856637 15.295728815899263 7.757938146702619 15.691618708163572 7.059688459864939 C 15.277204146231798 6.332500501209462 14.765424703374018 5.66531191750249 14.170464086421195 5.076615364590033 C 12.657771467066127 3.5850794075503445 10.83337289901878 2.8283807040021904 8.746632887574549 2.8283807040021904 C 8.510384871241918 2.8283807040021904 8.27413683809558 2.8382536262192035 8.041414908296598 2.8579997291639647 C 7.929266642870847 2.8700143855032887 7.815847933754933 2.8594893478876933 7.707825583854976 2.827043140032124 C 7.5998032339550186 2.7945969321765545 7.49935682090468 2.7408845719456583 7.412390192034002 2.669062630948098 C 7.325423563163325 2.597240689950538 7.25369176682152 2.5087584928626985 7.201410722307192 2.4088171243618297 C 7.149129677792864 2.308875755860961 7.117354589178694 2.1994917257876705 7.107952876071108 2.08709425078129 C 7.098551162963522 1.9746967757749094 7.11171257434955 1.861553831468689 7.1466636786628825 1.754315759961438 C 7.181614782976215 1.6470776884541871 7.237650002466282 1.5479082035858835 7.311476206609661 1.4626364240013945 C 7.38530241075304 1.3773646444169054 7.4754299576649785 1.3077111377073902 7.576560839907784 1.2577698858499768 C 7.677691722150589 1.2078286339925635 7.7877854955148464 1.1786072761055597 7.900371312441007 1.1718235992134316 C 8.17752198300508 1.1478461883446704 8.464545695863368 1.1358576016570912 8.746632887574549 1.1358576016570912 C 11.285417612975175 1.1358576016570912 13.58654368566523 2.0998902883955717 15.410237423121103 3.922878740115036 C 16.77483423992587 5.287475518282703 17.392604861233526 6.659124465114564 17.418697926803084 6.716247119986848 C 17.466807772275622 6.824418865016321 17.491843722625433 6.941431374557168 17.49220799122327 7.059818665207158 C 17.49257225982111 7.178205955857147 17.468256760718905 7.295369410447035 17.420813494654737 7.403835168353149 Z" fill="rgb(163.62499594688416,163.62499594688416,163.62499594688416)"/>
        </svg>